<svg width="288" height="219" viewBox="0 0 288 219" fill="none" xmlns="http://www.w3.org/2000/svg">
<g opacity="0.3">
<path d="M221.124 -2H67.613L2 107.639L67.613 218H221.124L286 107.639L221.124 -2Z" fill="url(#paint0_linear_2388_48858)" fill-opacity="0.2" stroke="url(#paint1_linear_2388_48858)" stroke-width="2"/>
<path opacity="0.3" d="M99.4514 100V86H110.211V88.52H102.351V91.72H107.531V94.16H102.351V97.48H110.291V100H99.4514ZM110.905 100L114.905 94.7L111.005 89.58H114.185L116.485 92.68L118.765 89.58H121.845L118.005 94.66L122.085 100H118.885L116.425 96.68L113.965 100H110.905ZM127.864 100.16C126.704 100.16 125.824 99.9 125.224 99.38C124.637 98.8467 124.344 98.0733 124.344 97.06V91.86H122.204V89.58H124.344V86.92L127.084 86.3V89.58H130.064V91.86H127.084V96.5C127.084 96.98 127.19 97.3267 127.404 97.54C127.617 97.74 127.99 97.84 128.524 97.84C128.79 97.84 129.03 97.8267 129.244 97.8C129.47 97.76 129.717 97.6933 129.984 97.6V99.86C129.704 99.9533 129.35 100.027 128.924 100.08C128.51 100.133 128.157 100.16 127.864 100.16ZM136.383 100.2C135.343 100.2 134.396 99.96 133.543 99.48C132.703 99 132.036 98.3533 131.543 97.54C131.05 96.7267 130.803 95.8133 130.803 94.8C130.803 93.7867 131.036 92.8733 131.503 92.06C131.983 91.2467 132.63 90.6 133.443 90.12C134.256 89.64 135.163 89.4 136.163 89.4C137.163 89.4 138.05 89.6467 138.823 90.14C139.596 90.6333 140.203 91.3 140.643 92.14C141.096 92.98 141.323 93.9333 141.323 95V95.72H133.603C133.723 96.1333 133.916 96.5067 134.183 96.84C134.463 97.1733 134.803 97.4333 135.203 97.62C135.616 97.8067 136.056 97.9 136.523 97.9C136.99 97.9 137.416 97.8267 137.803 97.68C138.203 97.5333 138.543 97.3267 138.823 97.06L140.623 98.7C139.983 99.22 139.323 99.6 138.643 99.84C137.976 100.08 137.223 100.2 136.383 100.2ZM133.563 93.76H138.623C138.53 93.3467 138.356 92.9867 138.103 92.68C137.863 92.36 137.57 92.1133 137.223 91.94C136.89 91.7533 136.516 91.66 136.103 91.66C135.676 91.66 135.29 91.7467 134.943 91.92C134.596 92.0933 134.303 92.34 134.063 92.66C133.836 92.9667 133.67 93.3333 133.563 93.76ZM143.002 100V89.58H145.742V90.44C146.529 89.7333 147.502 89.38 148.662 89.38C149.475 89.38 150.189 89.56 150.802 89.92C151.429 90.2667 151.915 90.7533 152.262 91.38C152.609 91.9933 152.782 92.7133 152.782 93.54V100H150.042V93.94C150.042 93.26 149.849 92.7267 149.462 92.34C149.075 91.94 148.549 91.74 147.882 91.74C147.415 91.74 147.002 91.8333 146.642 92.02C146.282 92.1933 145.982 92.4467 145.742 92.78V100H143.002ZM159.677 100.14C158.691 100.14 157.797 99.9 156.997 99.42C156.197 98.94 155.557 98.3 155.077 97.5C154.611 96.6867 154.377 95.78 154.377 94.78C154.377 93.78 154.611 92.88 155.077 92.08C155.557 91.2667 156.204 90.6267 157.017 90.16C157.831 89.68 158.744 89.44 159.757 89.44C160.277 89.44 160.777 89.5133 161.257 89.66C161.737 89.7933 162.184 89.9933 162.597 90.26V86L165.337 85.54V100H162.637V99.14C161.784 99.8067 160.797 100.14 159.677 100.14ZM160.117 97.8C160.624 97.8 161.084 97.72 161.497 97.56C161.924 97.3867 162.291 97.1333 162.597 96.8V92.74C162.291 92.4333 161.924 92.1933 161.497 92.02C161.071 91.8467 160.611 91.76 160.117 91.76C159.544 91.76 159.024 91.8933 158.557 92.16C158.104 92.4133 157.744 92.7733 157.477 93.24C157.211 93.6933 157.077 94.2067 157.077 94.78C157.077 95.3533 157.211 95.8667 157.477 96.32C157.744 96.7733 158.104 97.1333 158.557 97.4C159.024 97.6667 159.544 97.8 160.117 97.8ZM172.575 100.2C171.535 100.2 170.588 99.96 169.735 99.48C168.895 99 168.228 98.3533 167.735 97.54C167.241 96.7267 166.995 95.8133 166.995 94.8C166.995 93.7867 167.228 92.8733 167.695 92.06C168.175 91.2467 168.821 90.6 169.635 90.12C170.448 89.64 171.355 89.4 172.355 89.4C173.355 89.4 174.241 89.6467 175.015 90.14C175.788 90.6333 176.395 91.3 176.835 92.14C177.288 92.98 177.515 93.9333 177.515 95V95.72H169.795C169.915 96.1333 170.108 96.5067 170.375 96.84C170.655 97.1733 170.995 97.4333 171.395 97.62C171.808 97.8067 172.248 97.9 172.715 97.9C173.181 97.9 173.608 97.8267 173.995 97.68C174.395 97.5333 174.735 97.3267 175.015 97.06L176.815 98.7C176.175 99.22 175.515 99.6 174.835 99.84C174.168 100.08 173.415 100.2 172.575 100.2ZM169.755 93.76H174.815C174.721 93.3467 174.548 92.9867 174.295 92.68C174.055 92.36 173.761 92.1133 173.415 91.94C173.081 91.7533 172.708 91.66 172.295 91.66C171.868 91.66 171.481 91.7467 171.135 91.92C170.788 92.0933 170.495 92.34 170.255 92.66C170.028 92.9667 169.861 93.3333 169.755 93.76ZM184.091 100.14C183.105 100.14 182.211 99.9 181.411 99.42C180.611 98.94 179.971 98.3 179.491 97.5C179.025 96.6867 178.791 95.78 178.791 94.78C178.791 93.78 179.025 92.88 179.491 92.08C179.971 91.2667 180.618 90.6267 181.431 90.16C182.245 89.68 183.158 89.44 184.171 89.44C184.691 89.44 185.191 89.5133 185.671 89.66C186.151 89.7933 186.598 89.9933 187.011 90.26V86L189.751 85.54V100H187.051V99.14C186.198 99.8067 185.211 100.14 184.091 100.14ZM184.531 97.8C185.038 97.8 185.498 97.72 185.911 97.56C186.338 97.3867 186.705 97.1333 187.011 96.8V92.74C186.705 92.4333 186.338 92.1933 185.911 92.02C185.485 91.8467 185.025 91.76 184.531 91.76C183.958 91.76 183.438 91.8933 182.971 92.16C182.518 92.4133 182.158 92.7733 181.891 93.24C181.625 93.6933 181.491 94.2067 181.491 94.78C181.491 95.3533 181.625 95.8667 181.891 96.32C182.158 96.7733 182.518 97.1333 182.971 97.4C183.438 97.6667 183.958 97.8 184.531 97.8ZM90.4921 134.08V119.58H93.1921V120.44C94.0454 119.773 95.0321 119.44 96.1521 119.44C97.1388 119.44 98.0321 119.68 98.8321 120.16C99.6321 120.64 100.265 121.287 100.732 122.1C101.212 122.9 101.452 123.8 101.452 124.8C101.452 125.8 101.212 126.707 100.732 127.52C100.252 128.32 99.6054 128.96 98.7921 129.44C97.9788 129.907 97.0721 130.14 96.0721 130.14C95.5521 130.14 95.0521 130.073 94.5721 129.94C94.0921 129.793 93.6454 129.587 93.2321 129.32V134.08H90.4921ZM95.7121 127.82C96.2854 127.82 96.7988 127.687 97.2521 127.42C97.7188 127.153 98.0854 126.793 98.3521 126.34C98.6188 125.887 98.7521 125.373 98.7521 124.8C98.7521 124.227 98.6188 123.713 98.3521 123.26C98.0854 122.793 97.7188 122.433 97.2521 122.18C96.7988 121.913 96.2854 121.78 95.7121 121.78C95.2054 121.78 94.7388 121.867 94.3121 122.04C93.8988 122.2 93.5388 122.447 93.2321 122.78V126.84C93.5254 127.147 93.8854 127.387 94.3121 127.56C94.7521 127.733 95.2188 127.82 95.7121 127.82ZM103.109 130V119.58H105.849V120.74C106.183 120.287 106.583 119.94 107.049 119.7C107.516 119.46 108.043 119.34 108.629 119.34C109.136 119.353 109.516 119.433 109.769 119.58V121.98C109.569 121.887 109.349 121.82 109.109 121.78C108.869 121.727 108.623 121.7 108.369 121.7C107.836 121.7 107.349 121.833 106.909 122.1C106.469 122.367 106.116 122.747 105.849 123.24V130H103.109ZM115.943 130.2C114.903 130.2 113.963 129.96 113.123 129.48C112.283 129 111.617 128.353 111.123 127.54C110.63 126.727 110.383 125.813 110.383 124.8C110.383 123.787 110.623 122.873 111.103 122.06C111.597 121.233 112.263 120.58 113.103 120.1C113.957 119.62 114.903 119.38 115.943 119.38C116.983 119.38 117.923 119.62 118.763 120.1C119.617 120.58 120.283 121.233 120.763 122.06C121.257 122.873 121.503 123.787 121.503 124.8C121.503 125.813 121.257 126.727 120.763 127.54C120.283 128.353 119.623 129 118.783 129.48C117.943 129.96 116.997 130.2 115.943 130.2ZM115.943 127.82C116.49 127.82 116.977 127.687 117.403 127.42C117.843 127.153 118.19 126.793 118.443 126.34C118.71 125.873 118.843 125.36 118.843 124.8C118.843 124.227 118.71 123.713 118.443 123.26C118.19 122.807 117.843 122.447 117.403 122.18C116.977 121.9 116.49 121.76 115.943 121.76C115.41 121.76 114.923 121.9 114.483 122.18C114.043 122.447 113.697 122.807 113.443 123.26C113.19 123.713 113.063 124.227 113.063 124.8C113.063 125.36 113.19 125.873 113.443 126.34C113.697 126.793 114.043 127.153 114.483 127.42C114.923 127.687 115.41 127.82 115.943 127.82ZM128.007 130.14C127.021 130.14 126.127 129.9 125.327 129.42C124.527 128.94 123.887 128.3 123.407 127.5C122.941 126.687 122.707 125.78 122.707 124.78C122.707 123.78 122.941 122.88 123.407 122.08C123.887 121.267 124.534 120.627 125.347 120.16C126.161 119.68 127.074 119.44 128.087 119.44C128.607 119.44 129.107 119.513 129.587 119.66C130.067 119.793 130.514 119.993 130.927 120.26V116L133.667 115.54V130H130.967V129.14C130.114 129.807 129.127 130.14 128.007 130.14ZM128.447 127.8C128.954 127.8 129.414 127.72 129.827 127.56C130.254 127.387 130.621 127.133 130.927 126.8V122.74C130.621 122.433 130.254 122.193 129.827 122.02C129.401 121.847 128.941 121.76 128.447 121.76C127.874 121.76 127.354 121.893 126.887 122.16C126.434 122.413 126.074 122.773 125.807 123.24C125.541 123.693 125.407 124.207 125.407 124.78C125.407 125.353 125.541 125.867 125.807 126.32C126.074 126.773 126.434 127.133 126.887 127.4C127.354 127.667 127.874 127.8 128.447 127.8ZM139.845 130.2C139.045 130.2 138.331 130.027 137.705 129.68C137.091 129.32 136.605 128.827 136.245 128.2C135.898 127.573 135.725 126.853 135.725 126.04V119.58H138.465V125.64C138.465 126.307 138.658 126.84 139.045 127.24C139.445 127.64 139.978 127.84 140.645 127.84C141.098 127.84 141.505 127.753 141.865 127.58C142.238 127.393 142.545 127.133 142.785 126.8V119.58H145.525V130H142.785V129.16C141.985 129.853 141.005 130.2 139.845 130.2ZM152.64 130.2C151.613 130.2 150.687 129.967 149.86 129.5C149.033 129.02 148.38 128.373 147.9 127.56C147.42 126.733 147.18 125.813 147.18 124.8C147.18 123.773 147.42 122.853 147.9 122.04C148.38 121.227 149.033 120.58 149.86 120.1C150.687 119.62 151.613 119.38 152.64 119.38C153.467 119.38 154.253 119.54 155 119.86C155.76 120.18 156.413 120.64 156.96 121.24L155.28 123.02C154.893 122.593 154.487 122.28 154.06 122.08C153.647 121.867 153.193 121.76 152.7 121.76C152.167 121.76 151.687 121.893 151.26 122.16C150.847 122.427 150.513 122.787 150.26 123.24C150.02 123.693 149.9 124.213 149.9 124.8C149.9 125.36 150.02 125.873 150.26 126.34C150.513 126.793 150.86 127.153 151.3 127.42C151.74 127.673 152.227 127.8 152.76 127.8C153.227 127.8 153.66 127.707 154.06 127.52C154.473 127.32 154.867 127.027 155.24 126.64L156.88 128.36C156.347 128.933 155.707 129.387 154.96 129.72C154.213 130.04 153.44 130.2 152.64 130.2ZM163.44 130.16C162.28 130.16 161.4 129.9 160.8 129.38C160.213 128.847 159.92 128.073 159.92 127.06V121.86H157.78V119.58H159.92V116.92L162.66 116.3V119.58H165.64V121.86H162.66V126.5C162.66 126.98 162.767 127.327 162.98 127.54C163.193 127.74 163.567 127.84 164.1 127.84C164.367 127.84 164.607 127.827 164.82 127.8C165.047 127.76 165.293 127.693 165.56 127.6V129.86C165.28 129.953 164.927 130.027 164.5 130.08C164.087 130.133 163.733 130.16 163.44 130.16ZM171 130V116L173.74 115.54V130H171ZM175.883 130V119.58H178.623V130H175.883ZM177.243 118.34C176.816 118.34 176.449 118.187 176.143 117.88C175.836 117.573 175.683 117.207 175.683 116.78C175.683 116.34 175.836 115.973 176.143 115.68C176.449 115.373 176.816 115.22 177.243 115.22C177.683 115.22 178.049 115.373 178.343 115.68C178.649 115.973 178.803 116.34 178.803 116.78C178.803 117.207 178.649 117.573 178.343 117.88C178.049 118.187 177.683 118.34 177.243 118.34ZM182.366 130V121.86H180.046V119.58H182.366V118.58C182.366 117.407 182.706 116.513 183.386 115.9C184.066 115.273 185.046 114.96 186.326 114.96C186.606 114.96 186.892 114.973 187.186 115C187.479 115.027 187.732 115.073 187.946 115.14V117.44C187.692 117.387 187.472 117.347 187.286 117.32C187.099 117.293 186.892 117.28 186.666 117.28C186.146 117.28 185.752 117.393 185.486 117.62C185.232 117.833 185.106 118.173 185.106 118.64V119.58H187.946V121.86H185.106V130H182.366ZM194.049 130.2C193.009 130.2 192.062 129.96 191.209 129.48C190.369 129 189.702 128.353 189.209 127.54C188.716 126.727 188.469 125.813 188.469 124.8C188.469 123.787 188.702 122.873 189.169 122.06C189.649 121.247 190.296 120.6 191.109 120.12C191.922 119.64 192.829 119.4 193.829 119.4C194.829 119.4 195.716 119.647 196.489 120.14C197.262 120.633 197.869 121.3 198.309 122.14C198.762 122.98 198.989 123.933 198.989 125V125.72H191.269C191.389 126.133 191.582 126.507 191.849 126.84C192.129 127.173 192.469 127.433 192.869 127.62C193.282 127.807 193.722 127.9 194.189 127.9C194.656 127.9 195.082 127.827 195.469 127.68C195.869 127.533 196.209 127.327 196.489 127.06L198.289 128.7C197.649 129.22 196.989 129.6 196.309 129.84C195.642 130.08 194.889 130.2 194.049 130.2ZM191.229 123.76H196.289C196.196 123.347 196.022 122.987 195.769 122.68C195.529 122.36 195.236 122.113 194.889 121.94C194.556 121.753 194.182 121.66 193.769 121.66C193.342 121.66 192.956 121.747 192.609 121.92C192.262 122.093 191.969 122.34 191.729 122.66C191.502 122.967 191.336 123.333 191.229 123.76Z" fill="white"/>
</g>
<defs>
<linearGradient id="paint0_linear_2388_48858" x1="67" y1="210" x2="284" y2="2.5" gradientUnits="userSpaceOnUse">
<stop offset="0.0238919" stop-color="#D9D9D9"/>
<stop offset="1" stop-color="#D9D9D9" stop-opacity="0"/>
</linearGradient>
<linearGradient id="paint1_linear_2388_48858" x1="180.5" y1="195.5" x2="250" y2="20.5" gradientUnits="userSpaceOnUse">
<stop stop-color="white"/>
<stop offset="1" stop-color="white" stop-opacity="0"/>
</linearGradient>
</defs>
</svg>
