<svg width="288" height="219" viewBox="0 0 288 219" fill="none" xmlns="http://www.w3.org/2000/svg">
<g opacity="0.3">
<path d="M221.124 -2H67.613L2 107.639L67.613 218H221.124L286 107.639L221.124 -2Z" fill="url(#paint0_linear_2388_48855)" fill-opacity="0.2" stroke="url(#paint1_linear_2388_48855)" stroke-width="2"/>
<path opacity="0.3" d="M76.5413 100V86H87.3013V88.52H79.4413V91.72H84.6213V94.16H79.4413V97.48H87.3813V100H76.5413ZM89.2519 100V89.58H91.9919V90.44C92.7785 89.7333 93.7519 89.38 94.9119 89.38C95.7252 89.38 96.4385 89.56 97.0519 89.92C97.6785 90.2667 98.1652 90.7533 98.5119 91.38C98.8585 91.9933 99.0319 92.7133 99.0319 93.54V100H96.2919V93.94C96.2919 93.26 96.0985 92.7267 95.7119 92.34C95.3252 91.94 94.7985 91.74 94.1319 91.74C93.6652 91.74 93.2519 91.8333 92.8919 92.02C92.5319 92.1933 92.2319 92.4467 91.9919 92.78V100H89.2519ZM103.921 100L99.4609 89.58H102.441L105.301 96.52L108.141 89.58H111.061L106.581 100H103.921ZM112.143 100V89.58H114.883V100H112.143ZM113.503 88.34C113.076 88.34 112.709 88.1867 112.403 87.88C112.096 87.5733 111.943 87.2067 111.943 86.78C111.943 86.34 112.096 85.9733 112.403 85.68C112.709 85.3733 113.076 85.22 113.503 85.22C113.943 85.22 114.309 85.3733 114.603 85.68C114.909 85.9733 115.063 86.34 115.063 86.78C115.063 87.2067 114.909 87.5733 114.603 87.88C114.309 88.1867 113.943 88.34 113.503 88.34ZM117.025 100V89.58H119.765V90.74C120.099 90.2867 120.499 89.94 120.965 89.7C121.432 89.46 121.959 89.34 122.545 89.34C123.052 89.3533 123.432 89.4333 123.685 89.58V91.98C123.485 91.8867 123.265 91.82 123.025 91.78C122.785 91.7267 122.539 91.7 122.285 91.7C121.752 91.7 121.265 91.8333 120.825 92.1C120.385 92.3667 120.032 92.7467 119.765 93.24V100H117.025ZM129.859 100.2C128.819 100.2 127.879 99.96 127.039 99.48C126.199 99 125.533 98.3533 125.039 97.54C124.546 96.7267 124.299 95.8133 124.299 94.8C124.299 93.7867 124.539 92.8733 125.019 92.06C125.513 91.2333 126.179 90.58 127.019 90.1C127.873 89.62 128.819 89.38 129.859 89.38C130.899 89.38 131.839 89.62 132.679 90.1C133.533 90.58 134.199 91.2333 134.679 92.06C135.173 92.8733 135.419 93.7867 135.419 94.8C135.419 95.8133 135.173 96.7267 134.679 97.54C134.199 98.3533 133.539 99 132.699 99.48C131.859 99.96 130.913 100.2 129.859 100.2ZM129.859 97.82C130.406 97.82 130.893 97.6867 131.319 97.42C131.759 97.1533 132.106 96.7933 132.359 96.34C132.626 95.8733 132.759 95.36 132.759 94.8C132.759 94.2267 132.626 93.7133 132.359 93.26C132.106 92.8067 131.759 92.4467 131.319 92.18C130.893 91.9 130.406 91.76 129.859 91.76C129.326 91.76 128.839 91.9 128.399 92.18C127.959 92.4467 127.613 92.8067 127.359 93.26C127.106 93.7133 126.979 94.2267 126.979 94.8C126.979 95.36 127.106 95.8733 127.359 96.34C127.613 96.7933 127.959 97.1533 128.399 97.42C128.839 97.6867 129.326 97.82 129.859 97.82ZM137.103 100V89.58H139.843V90.44C140.63 89.7333 141.603 89.38 142.763 89.38C143.577 89.38 144.29 89.56 144.903 89.92C145.53 90.2667 146.017 90.7533 146.363 91.38C146.71 91.9933 146.883 92.7133 146.883 93.54V100H144.143V93.94C144.143 93.26 143.95 92.7267 143.563 92.34C143.177 91.94 142.65 91.74 141.983 91.74C141.517 91.74 141.103 91.8333 140.743 92.02C140.383 92.1933 140.083 92.4467 139.843 92.78V100H137.103ZM148.959 100V89.58H151.699V90.38C152.446 89.7133 153.352 89.38 154.419 89.38C155.099 89.38 155.706 89.52 156.239 89.8C156.772 90.0667 157.212 90.4467 157.559 90.94C157.986 90.4333 158.486 90.0467 159.059 89.78C159.646 89.5133 160.292 89.38 160.999 89.38C161.786 89.38 162.472 89.56 163.059 89.92C163.659 90.2667 164.126 90.7533 164.459 91.38C164.806 91.9933 164.979 92.7133 164.979 93.54V100H162.259V93.94C162.259 93.26 162.079 92.7267 161.719 92.34C161.359 91.94 160.879 91.74 160.279 91.74C159.866 91.74 159.486 91.8267 159.139 92C158.806 92.1733 158.519 92.4333 158.279 92.78C158.292 92.9 158.306 93.02 158.319 93.14C158.332 93.26 158.339 93.3933 158.339 93.54V100H155.599V93.94C155.599 93.26 155.419 92.7267 155.059 92.34C154.712 91.94 154.239 91.74 153.639 91.74C153.226 91.74 152.852 91.82 152.519 91.98C152.199 92.14 151.926 92.38 151.699 92.7V100H148.959ZM172.164 100.2C171.124 100.2 170.178 99.96 169.324 99.48C168.484 99 167.818 98.3533 167.324 97.54C166.831 96.7267 166.584 95.8133 166.584 94.8C166.584 93.7867 166.818 92.8733 167.284 92.06C167.764 91.2467 168.411 90.6 169.224 90.12C170.038 89.64 170.944 89.4 171.944 89.4C172.944 89.4 173.831 89.6467 174.604 90.14C175.378 90.6333 175.984 91.3 176.424 92.14C176.878 92.98 177.104 93.9333 177.104 95V95.72H169.384C169.504 96.1333 169.698 96.5067 169.964 96.84C170.244 97.1733 170.584 97.4333 170.984 97.62C171.398 97.8067 171.838 97.9 172.304 97.9C172.771 97.9 173.198 97.8267 173.584 97.68C173.984 97.5333 174.324 97.3267 174.604 97.06L176.404 98.7C175.764 99.22 175.104 99.6 174.424 99.84C173.758 100.08 173.004 100.2 172.164 100.2ZM169.344 93.76H174.404C174.311 93.3467 174.138 92.9867 173.884 92.68C173.644 92.36 173.351 92.1133 173.004 91.94C172.671 91.7533 172.298 91.66 171.884 91.66C171.458 91.66 171.071 91.7467 170.724 91.92C170.378 92.0933 170.084 92.34 169.844 92.66C169.618 92.9667 169.451 93.3333 169.344 93.76ZM178.783 100V89.58H181.523V90.44C182.31 89.7333 183.283 89.38 184.443 89.38C185.256 89.38 185.97 89.56 186.583 89.92C187.21 90.2667 187.696 90.7533 188.043 91.38C188.39 91.9933 188.563 92.7133 188.563 93.54V100H185.823V93.94C185.823 93.26 185.63 92.7267 185.243 92.34C184.856 91.94 184.33 91.74 183.663 91.74C183.196 91.74 182.783 91.8333 182.423 92.02C182.063 92.1933 181.763 92.4467 181.523 92.78V100H178.783ZM195.286 100.16C194.126 100.16 193.246 99.9 192.646 99.38C192.059 98.8467 191.766 98.0733 191.766 97.06V91.86H189.626V89.58H191.766V86.92L194.506 86.3V89.58H197.486V91.86H194.506V96.5C194.506 96.98 194.612 97.3267 194.826 97.54C195.039 97.74 195.412 97.84 195.946 97.84C196.212 97.84 196.452 97.8267 196.666 97.8C196.892 97.76 197.139 97.6933 197.406 97.6V99.86C197.126 99.9533 196.772 100.027 196.346 100.08C195.932 100.133 195.579 100.16 195.286 100.16ZM202.142 100.18C201.396 100.18 200.736 100.047 200.162 99.78C199.589 99.5 199.142 99.12 198.822 98.64C198.502 98.16 198.342 97.6067 198.342 96.98C198.342 95.98 198.716 95.2067 199.462 94.66C200.222 94.1 201.262 93.82 202.582 93.82C203.489 93.82 204.342 93.96 205.142 94.24V93.48C205.142 92.88 204.956 92.4267 204.582 92.12C204.209 91.8133 203.662 91.66 202.942 91.66C202.502 91.66 202.029 91.7333 201.522 91.88C201.016 92.0133 200.429 92.2267 199.762 92.52L198.762 90.5C199.589 90.1267 200.376 89.8467 201.122 89.66C201.882 89.4733 202.642 89.38 203.402 89.38C204.802 89.38 205.889 89.72 206.662 90.4C207.449 91.0667 207.842 92.0133 207.842 93.24V100H205.142V99.26C204.716 99.58 204.256 99.8133 203.762 99.96C203.269 100.107 202.729 100.18 202.142 100.18ZM200.942 96.92C200.942 97.32 201.116 97.64 201.462 97.88C201.809 98.1067 202.269 98.22 202.842 98.22C203.296 98.22 203.716 98.1667 204.102 98.06C204.489 97.94 204.836 97.7667 205.142 97.54V96.02C204.809 95.8867 204.462 95.7867 204.102 95.72C203.742 95.6533 203.356 95.62 202.942 95.62C202.316 95.62 201.822 95.74 201.462 95.98C201.116 96.2067 200.942 96.52 200.942 96.92ZM209.916 100V86L212.656 85.54V100H209.916ZM112.523 130V119.58H115.263V130H112.523ZM113.883 118.34C113.457 118.34 113.09 118.187 112.783 117.88C112.477 117.573 112.323 117.207 112.323 116.78C112.323 116.34 112.477 115.973 112.783 115.68C113.09 115.373 113.457 115.22 113.883 115.22C114.323 115.22 114.69 115.373 114.983 115.68C115.29 115.973 115.443 116.34 115.443 116.78C115.443 117.207 115.29 117.573 114.983 117.88C114.69 118.187 114.323 118.34 113.883 118.34ZM117.406 130V119.58H120.146V120.38C120.893 119.713 121.8 119.38 122.866 119.38C123.546 119.38 124.153 119.52 124.686 119.8C125.22 120.067 125.66 120.447 126.006 120.94C126.433 120.433 126.933 120.047 127.506 119.78C128.093 119.513 128.74 119.38 129.446 119.38C130.233 119.38 130.92 119.56 131.506 119.92C132.106 120.267 132.573 120.753 132.906 121.38C133.253 121.993 133.426 122.713 133.426 123.54V130H130.706V123.94C130.706 123.26 130.526 122.727 130.166 122.34C129.806 121.94 129.326 121.74 128.726 121.74C128.313 121.74 127.933 121.827 127.586 122C127.253 122.173 126.966 122.433 126.726 122.78C126.74 122.9 126.753 123.02 126.766 123.14C126.78 123.26 126.786 123.393 126.786 123.54V130H124.046V123.94C124.046 123.26 123.866 122.727 123.506 122.34C123.16 121.94 122.686 121.74 122.086 121.74C121.673 121.74 121.3 121.82 120.966 121.98C120.646 122.14 120.373 122.38 120.146 122.7V130H117.406ZM135.512 134.08V119.58H138.212V120.44C139.065 119.773 140.052 119.44 141.172 119.44C142.158 119.44 143.052 119.68 143.852 120.16C144.652 120.64 145.285 121.287 145.752 122.1C146.232 122.9 146.472 123.8 146.472 124.8C146.472 125.8 146.232 126.707 145.752 127.52C145.272 128.32 144.625 128.96 143.812 129.44C142.998 129.907 142.092 130.14 141.092 130.14C140.572 130.14 140.072 130.073 139.592 129.94C139.112 129.793 138.665 129.587 138.252 129.32V134.08H135.512ZM140.732 127.82C141.305 127.82 141.818 127.687 142.272 127.42C142.738 127.153 143.105 126.793 143.372 126.34C143.638 125.887 143.772 125.373 143.772 124.8C143.772 124.227 143.638 123.713 143.372 123.26C143.105 122.793 142.738 122.433 142.272 122.18C141.818 121.913 141.305 121.78 140.732 121.78C140.225 121.78 139.758 121.867 139.332 122.04C138.918 122.2 138.558 122.447 138.252 122.78V126.84C138.545 127.147 138.905 127.387 139.332 127.56C139.772 127.733 140.238 127.82 140.732 127.82ZM151.546 130.18C150.8 130.18 150.14 130.047 149.566 129.78C148.993 129.5 148.546 129.12 148.226 128.64C147.906 128.16 147.746 127.607 147.746 126.98C147.746 125.98 148.12 125.207 148.866 124.66C149.626 124.1 150.666 123.82 151.986 123.82C152.893 123.82 153.746 123.96 154.546 124.24V123.48C154.546 122.88 154.36 122.427 153.986 122.12C153.613 121.813 153.066 121.66 152.346 121.66C151.906 121.66 151.433 121.733 150.926 121.88C150.42 122.013 149.833 122.227 149.166 122.52L148.166 120.5C148.993 120.127 149.78 119.847 150.526 119.66C151.286 119.473 152.046 119.38 152.806 119.38C154.206 119.38 155.293 119.72 156.066 120.4C156.853 121.067 157.246 122.013 157.246 123.24V130H154.546V129.26C154.12 129.58 153.66 129.813 153.166 129.96C152.673 130.107 152.133 130.18 151.546 130.18ZM150.346 126.92C150.346 127.32 150.52 127.64 150.866 127.88C151.213 128.107 151.673 128.22 152.246 128.22C152.7 128.22 153.12 128.167 153.506 128.06C153.893 127.94 154.24 127.767 154.546 127.54V126.02C154.213 125.887 153.866 125.787 153.506 125.72C153.146 125.653 152.76 125.62 152.346 125.62C151.72 125.62 151.226 125.74 150.866 125.98C150.52 126.207 150.346 126.52 150.346 126.92ZM164.3 130.2C163.274 130.2 162.347 129.967 161.52 129.5C160.694 129.02 160.04 128.373 159.56 127.56C159.08 126.733 158.84 125.813 158.84 124.8C158.84 123.773 159.08 122.853 159.56 122.04C160.04 121.227 160.694 120.58 161.52 120.1C162.347 119.62 163.274 119.38 164.3 119.38C165.127 119.38 165.914 119.54 166.66 119.86C167.42 120.18 168.074 120.64 168.62 121.24L166.94 123.02C166.554 122.593 166.147 122.28 165.72 122.08C165.307 121.867 164.854 121.76 164.36 121.76C163.827 121.76 163.347 121.893 162.92 122.16C162.507 122.427 162.174 122.787 161.92 123.24C161.68 123.693 161.56 124.213 161.56 124.8C161.56 125.36 161.68 125.873 161.92 126.34C162.174 126.793 162.52 127.153 162.96 127.42C163.4 127.673 163.887 127.8 164.42 127.8C164.887 127.8 165.32 127.707 165.72 127.52C166.134 127.32 166.527 127.027 166.9 126.64L168.54 128.36C168.007 128.933 167.367 129.387 166.62 129.72C165.874 130.04 165.1 130.2 164.3 130.2ZM175.1 130.16C173.94 130.16 173.06 129.9 172.46 129.38C171.873 128.847 171.58 128.073 171.58 127.06V121.86H169.44V119.58H171.58V116.92L174.32 116.3V119.58H177.3V121.86H174.32V126.5C174.32 126.98 174.427 127.327 174.64 127.54C174.853 127.74 175.227 127.84 175.76 127.84C176.027 127.84 176.267 127.827 176.48 127.8C176.707 127.76 176.953 127.693 177.22 127.6V129.86C176.94 129.953 176.587 130.027 176.16 130.08C175.747 130.133 175.393 130.16 175.1 130.16Z" fill="white"/>
</g>
<defs>
<linearGradient id="paint0_linear_2388_48855" x1="145.5" y1="238.5" x2="90.5" y2="-31" gradientUnits="userSpaceOnUse">
<stop offset="0.0238919" stop-color="#D9D9D9"/>
<stop offset="1" stop-color="#D9D9D9" stop-opacity="0"/>
</linearGradient>
<linearGradient id="paint1_linear_2388_48855" x1="264" y1="162" x2="207.5" y2="71" gradientUnits="userSpaceOnUse">
<stop stop-color="white"/>
<stop offset="1" stop-color="white" stop-opacity="0"/>
</linearGradient>
</defs>
</svg>
