<svg width="288" height="222" viewBox="0 0 288 222" fill="none" xmlns="http://www.w3.org/2000/svg">
<path d="M221.124 1H67.613L2 110.639L67.613 221H221.124L286 110.639L221.124 1Z" fill="url(#paint0_linear_2388_48864)" fill-opacity="0.8" stroke="white" stroke-width="2"/>
<path d="M62.3909 103V89H69.2309C70.1775 89 71.0109 89.1867 71.7309 89.56C72.4642 89.92 73.0309 90.4267 73.4309 91.08C73.8442 91.7333 74.0509 92.4867 74.0509 93.34C74.0509 94.2333 73.8042 95.02 73.3109 95.7C72.8175 96.38 72.1575 96.8867 71.3309 97.22L74.4309 103H71.1909L68.4509 97.64H65.2909V103H62.3909ZM65.2909 95.26H68.9709C69.6242 95.26 70.1442 95.0867 70.5309 94.74C70.9309 94.3933 71.1309 93.94 71.1309 93.38C71.1309 92.82 70.9309 92.3667 70.5309 92.02C70.1442 91.6733 69.6242 91.5 68.9709 91.5H65.2909V95.26ZM78.9098 103.18C78.1631 103.18 77.5031 103.047 76.9298 102.78C76.3564 102.5 75.9098 102.12 75.5898 101.64C75.2698 101.16 75.1098 100.607 75.1098 99.98C75.1098 98.98 75.4831 98.2067 76.2298 97.66C76.9898 97.1 78.0298 96.82 79.3498 96.82C80.2564 96.82 81.1098 96.96 81.9098 97.24V96.48C81.9098 95.88 81.7231 95.4267 81.3498 95.12C80.9764 94.8133 80.4298 94.66 79.7098 94.66C79.2698 94.66 78.7964 94.7333 78.2898 94.88C77.7831 95.0133 77.1964 95.2267 76.5298 95.52L75.5298 93.5C76.3564 93.1267 77.1431 92.8467 77.8898 92.66C78.6498 92.4733 79.4098 92.38 80.1698 92.38C81.5698 92.38 82.6564 92.72 83.4298 93.4C84.2164 94.0667 84.6098 95.0133 84.6098 96.24V103H81.9098V102.26C81.4831 102.58 81.0231 102.813 80.5298 102.96C80.0364 103.107 79.4964 103.18 78.9098 103.18ZM77.7098 99.92C77.7098 100.32 77.8831 100.64 78.2298 100.88C78.5764 101.107 79.0364 101.22 79.6098 101.22C80.0631 101.22 80.4831 101.167 80.8698 101.06C81.2564 100.94 81.6031 100.767 81.9098 100.54V99.02C81.5764 98.8867 81.2298 98.7867 80.8698 98.72C80.5098 98.6533 80.1231 98.62 79.7098 98.62C79.0831 98.62 78.5898 98.74 78.2298 98.98C77.8831 99.2067 77.7098 99.52 77.7098 99.92ZM86.6835 107.08V92.58H89.3835V93.44C90.2368 92.7733 91.2235 92.44 92.3435 92.44C93.3302 92.44 94.2235 92.68 95.0235 93.16C95.8235 93.64 96.4568 94.2867 96.9235 95.1C97.4035 95.9 97.6435 96.8 97.6435 97.8C97.6435 98.8 97.4035 99.7067 96.9235 100.52C96.4435 101.32 95.7968 101.96 94.9835 102.44C94.1702 102.907 93.2635 103.14 92.2635 103.14C91.7435 103.14 91.2435 103.073 90.7635 102.94C90.2835 102.793 89.8368 102.587 89.4235 102.32V107.08H86.6835ZM91.9035 100.82C92.4768 100.82 92.9902 100.687 93.4435 100.42C93.9102 100.153 94.2768 99.7933 94.5435 99.34C94.8102 98.8867 94.9435 98.3733 94.9435 97.8C94.9435 97.2267 94.8102 96.7133 94.5435 96.26C94.2768 95.7933 93.9102 95.4333 93.4435 95.18C92.9902 94.9133 92.4768 94.78 91.9035 94.78C91.3968 94.78 90.9302 94.8667 90.5035 95.04C90.0902 95.2 89.7302 95.4467 89.4235 95.78V99.84C89.7168 100.147 90.0768 100.387 90.5035 100.56C90.9435 100.733 91.4102 100.82 91.9035 100.82ZM99.3007 103V92.58H102.041V103H99.3007ZM100.661 91.34C100.234 91.34 99.8674 91.1867 99.5607 90.88C99.254 90.5733 99.1007 90.2067 99.1007 89.78C99.1007 89.34 99.254 88.9733 99.5607 88.68C99.8674 88.3733 100.234 88.22 100.661 88.22C101.101 88.22 101.467 88.3733 101.761 88.68C102.067 88.9733 102.221 89.34 102.221 89.78C102.221 90.2067 102.067 90.5733 101.761 90.88C101.467 91.1867 101.101 91.34 100.661 91.34ZM109.004 103.14C108.017 103.14 107.124 102.9 106.324 102.42C105.524 101.94 104.884 101.3 104.404 100.5C103.937 99.6867 103.704 98.78 103.704 97.78C103.704 96.78 103.937 95.88 104.404 95.08C104.884 94.2667 105.53 93.6267 106.344 93.16C107.157 92.68 108.07 92.44 109.084 92.44C109.604 92.44 110.104 92.5133 110.584 92.66C111.064 92.7933 111.51 92.9933 111.924 93.26V89L114.664 88.54V103H111.964V102.14C111.11 102.807 110.124 103.14 109.004 103.14ZM109.444 100.8C109.95 100.8 110.41 100.72 110.824 100.56C111.25 100.387 111.617 100.133 111.924 99.8V95.74C111.617 95.4333 111.25 95.1933 110.824 95.02C110.397 94.8467 109.937 94.76 109.444 94.76C108.87 94.76 108.35 94.8933 107.884 95.16C107.43 95.4133 107.07 95.7733 106.804 96.24C106.537 96.6933 106.404 97.2067 106.404 97.78C106.404 98.3533 106.537 98.8667 106.804 99.32C107.07 99.7733 107.43 100.133 107.884 100.4C108.35 100.667 108.87 100.8 109.444 100.8ZM125.764 103.16C124.604 103.16 123.724 102.9 123.124 102.38C122.537 101.847 122.244 101.073 122.244 100.06V94.86H120.104V92.58H122.244V89.92L124.984 89.3V92.58H127.964V94.86H124.984V99.5C124.984 99.98 125.091 100.327 125.304 100.54C125.517 100.74 125.891 100.84 126.424 100.84C126.691 100.84 126.931 100.827 127.144 100.8C127.371 100.76 127.617 100.693 127.884 100.6V102.86C127.604 102.953 127.251 103.027 126.824 103.08C126.411 103.133 126.057 103.16 125.764 103.16ZM134.284 103.2C133.244 103.2 132.297 102.96 131.444 102.48C130.604 102 129.937 101.353 129.444 100.54C128.95 99.7267 128.704 98.8133 128.704 97.8C128.704 96.7867 128.937 95.8733 129.404 95.06C129.884 94.2467 130.53 93.6 131.344 93.12C132.157 92.64 133.064 92.4 134.064 92.4C135.064 92.4 135.95 92.6467 136.724 93.14C137.497 93.6333 138.104 94.3 138.544 95.14C138.997 95.98 139.224 96.9333 139.224 98V98.72H131.504C131.624 99.1333 131.817 99.5067 132.084 99.84C132.364 100.173 132.704 100.433 133.104 100.62C133.517 100.807 133.957 100.9 134.424 100.9C134.89 100.9 135.317 100.827 135.704 100.68C136.104 100.533 136.444 100.327 136.724 100.06L138.524 101.7C137.884 102.22 137.224 102.6 136.544 102.84C135.877 103.08 135.124 103.2 134.284 103.2ZM131.464 96.76H136.524C136.43 96.3467 136.257 95.9867 136.004 95.68C135.764 95.36 135.47 95.1133 135.124 94.94C134.79 94.7533 134.417 94.66 134.004 94.66C133.577 94.66 133.19 94.7467 132.844 94.92C132.497 95.0933 132.204 95.34 131.964 95.66C131.737 95.9667 131.57 96.3333 131.464 96.76ZM145.96 103.2C144.934 103.2 144.007 102.967 143.18 102.5C142.354 102.02 141.7 101.373 141.22 100.56C140.74 99.7333 140.5 98.8133 140.5 97.8C140.5 96.7733 140.74 95.8533 141.22 95.04C141.7 94.2267 142.354 93.58 143.18 93.1C144.007 92.62 144.934 92.38 145.96 92.38C146.787 92.38 147.574 92.54 148.32 92.86C149.08 93.18 149.734 93.64 150.28 94.24L148.6 96.02C148.214 95.5933 147.807 95.28 147.38 95.08C146.967 94.8667 146.514 94.76 146.02 94.76C145.487 94.76 145.007 94.8933 144.58 95.16C144.167 95.4267 143.834 95.7867 143.58 96.24C143.34 96.6933 143.22 97.2133 143.22 97.8C143.22 98.36 143.34 98.8733 143.58 99.34C143.834 99.7933 144.18 100.153 144.62 100.42C145.06 100.673 145.547 100.8 146.08 100.8C146.547 100.8 146.98 100.707 147.38 100.52C147.794 100.32 148.187 100.027 148.56 99.64L150.2 101.36C149.667 101.933 149.027 102.387 148.28 102.72C147.534 103.04 146.76 103.2 145.96 103.2ZM151.625 103V89L154.365 88.4V93.44C155.152 92.7333 156.125 92.38 157.285 92.38C158.098 92.38 158.812 92.56 159.425 92.92C160.052 93.2667 160.538 93.7533 160.885 94.38C161.232 94.9933 161.405 95.7133 161.405 96.54V103H158.665V96.94C158.665 96.26 158.472 95.7267 158.085 95.34C157.698 94.94 157.172 94.74 156.505 94.74C156.038 94.74 155.625 94.8333 155.265 95.02C154.905 95.1933 154.605 95.4467 154.365 95.78V103H151.625ZM163.48 103V92.58H166.22V93.44C167.007 92.7333 167.98 92.38 169.14 92.38C169.954 92.38 170.667 92.56 171.28 92.92C171.907 93.2667 172.394 93.7533 172.74 94.38C173.087 94.9933 173.26 95.7133 173.26 96.54V103H170.52V96.94C170.52 96.26 170.327 95.7267 169.94 95.34C169.554 94.94 169.027 94.74 168.36 94.74C167.894 94.74 167.48 94.8333 167.12 95.02C166.76 95.1933 166.46 95.4467 166.22 95.78V103H163.48ZM180.416 103.2C179.376 103.2 178.436 102.96 177.596 102.48C176.756 102 176.089 101.353 175.596 100.54C175.103 99.7267 174.856 98.8133 174.856 97.8C174.856 96.7867 175.096 95.8733 175.576 95.06C176.069 94.2333 176.736 93.58 177.576 93.1C178.429 92.62 179.376 92.38 180.416 92.38C181.456 92.38 182.396 92.62 183.236 93.1C184.089 93.58 184.756 94.2333 185.236 95.06C185.729 95.8733 185.976 96.7867 185.976 97.8C185.976 98.8133 185.729 99.7267 185.236 100.54C184.756 101.353 184.096 102 183.256 102.48C182.416 102.96 181.469 103.2 180.416 103.2ZM180.416 100.82C180.963 100.82 181.449 100.687 181.876 100.42C182.316 100.153 182.663 99.7933 182.916 99.34C183.183 98.8733 183.316 98.36 183.316 97.8C183.316 97.2267 183.183 96.7133 182.916 96.26C182.663 95.8067 182.316 95.4467 181.876 95.18C181.449 94.9 180.963 94.76 180.416 94.76C179.883 94.76 179.396 94.9 178.956 95.18C178.516 95.4467 178.169 95.8067 177.916 96.26C177.663 96.7133 177.536 97.2267 177.536 97.8C177.536 98.36 177.663 98.8733 177.916 99.34C178.169 99.7933 178.516 100.153 178.956 100.42C179.396 100.687 179.883 100.82 180.416 100.82ZM187.66 103V89L190.4 88.54V103H187.66ZM197.623 103.2C196.583 103.2 195.643 102.96 194.803 102.48C193.963 102 193.296 101.353 192.803 100.54C192.31 99.7267 192.063 98.8133 192.063 97.8C192.063 96.7867 192.303 95.8733 192.783 95.06C193.276 94.2333 193.943 93.58 194.783 93.1C195.636 92.62 196.583 92.38 197.623 92.38C198.663 92.38 199.603 92.62 200.443 93.1C201.296 93.58 201.963 94.2333 202.443 95.06C202.936 95.8733 203.183 96.7867 203.183 97.8C203.183 98.8133 202.936 99.7267 202.443 100.54C201.963 101.353 201.303 102 200.463 102.48C199.623 102.96 198.676 103.2 197.623 103.2ZM197.623 100.82C198.17 100.82 198.656 100.687 199.083 100.42C199.523 100.153 199.87 99.7933 200.123 99.34C200.39 98.8733 200.523 98.36 200.523 97.8C200.523 97.2267 200.39 96.7133 200.123 96.26C199.87 95.8067 199.523 95.4467 199.083 95.18C198.656 94.9 198.17 94.76 197.623 94.76C197.09 94.76 196.603 94.9 196.163 95.18C195.723 95.4467 195.376 95.8067 195.123 96.26C194.87 96.7133 194.743 97.2267 194.743 97.8C194.743 98.36 194.87 98.8733 195.123 99.34C195.376 99.7933 195.723 100.153 196.163 100.42C196.603 100.687 197.09 100.82 197.623 100.82ZM210.107 107.28C209.307 107.28 208.534 107.193 207.787 107.02C207.04 106.86 206.367 106.627 205.767 106.32L206.727 104.2C207.3 104.48 207.86 104.687 208.407 104.82C208.954 104.953 209.5 105.02 210.047 105.02C210.86 105.02 211.474 104.847 211.887 104.5C212.314 104.153 212.527 103.633 212.527 102.94V102.12C211.674 102.747 210.72 103.06 209.667 103.06C208.68 103.06 207.787 102.827 206.987 102.36C206.2 101.88 205.567 101.233 205.087 100.42C204.62 99.6067 204.387 98.7067 204.387 97.72C204.387 96.7333 204.62 95.84 205.087 95.04C205.567 94.24 206.214 93.6067 207.027 93.14C207.84 92.66 208.747 92.42 209.747 92.42C210.254 92.42 210.747 92.4933 211.227 92.64C211.707 92.7867 212.154 92.9933 212.567 93.26V92.58H215.267V102.98C215.267 104.353 214.82 105.413 213.927 106.16C213.047 106.907 211.774 107.28 210.107 107.28ZM210.087 100.74C210.594 100.74 211.054 100.66 211.467 100.5C211.88 100.327 212.234 100.087 212.527 99.78V95.7C212.234 95.4067 211.874 95.18 211.447 95.02C211.034 94.8467 210.587 94.76 210.107 94.76C209.534 94.76 209.02 94.8933 208.567 95.16C208.114 95.4133 207.754 95.7667 207.487 96.22C207.22 96.66 207.087 97.16 207.087 97.72C207.087 98.2933 207.214 98.8067 207.467 99.26C207.734 99.7133 208.094 100.073 208.547 100.34C209.014 100.607 209.527 100.74 210.087 100.74ZM218.426 107.3C218.186 107.3 217.953 107.287 217.726 107.26C217.513 107.247 217.333 107.227 217.186 107.2V104.84C217.453 104.893 217.773 104.92 218.146 104.92C219.146 104.92 219.84 104.447 220.226 103.5L220.386 103.1L216.326 92.58H219.346L221.946 99.68L224.886 92.58H227.846L223.046 103.84C222.686 104.68 222.293 105.353 221.866 105.86C221.44 106.367 220.946 106.733 220.386 106.96C219.84 107.187 219.186 107.3 218.426 107.3ZM97.455 133V122.58H100.195V133H97.455ZM98.815 121.34C98.3883 121.34 98.0217 121.187 97.715 120.88C97.4083 120.573 97.255 120.207 97.255 119.78C97.255 119.34 97.4083 118.973 97.715 118.68C98.0217 118.373 98.3883 118.22 98.815 118.22C99.255 118.22 99.6217 118.373 99.915 118.68C100.222 118.973 100.375 119.34 100.375 119.78C100.375 120.207 100.222 120.573 99.915 120.88C99.6217 121.187 99.255 121.34 98.815 121.34ZM102.338 133V122.58H105.078V123.44C105.864 122.733 106.838 122.38 107.998 122.38C108.811 122.38 109.524 122.56 110.138 122.92C110.764 123.267 111.251 123.753 111.598 124.38C111.944 124.993 112.118 125.713 112.118 126.54V133H109.378V126.94C109.378 126.26 109.184 125.727 108.798 125.34C108.411 124.94 107.884 124.74 107.218 124.74C106.751 124.74 106.338 124.833 105.978 125.02C105.618 125.193 105.318 125.447 105.078 125.78V133H102.338ZM114.193 133V122.58H116.933V123.44C117.72 122.733 118.693 122.38 119.853 122.38C120.667 122.38 121.38 122.56 121.993 122.92C122.62 123.267 123.107 123.753 123.453 124.38C123.8 124.993 123.973 125.713 123.973 126.54V133H121.233V126.94C121.233 126.26 121.04 125.727 120.653 125.34C120.267 124.94 119.74 124.74 119.073 124.74C118.607 124.74 118.193 124.833 117.833 125.02C117.473 125.193 117.173 125.447 116.933 125.78V133H114.193ZM131.129 133.2C130.089 133.2 129.149 132.96 128.309 132.48C127.469 132 126.802 131.353 126.309 130.54C125.815 129.727 125.569 128.813 125.569 127.8C125.569 126.787 125.809 125.873 126.289 125.06C126.782 124.233 127.449 123.58 128.289 123.1C129.142 122.62 130.089 122.38 131.129 122.38C132.169 122.38 133.109 122.62 133.949 123.1C134.802 123.58 135.469 124.233 135.949 125.06C136.442 125.873 136.689 126.787 136.689 127.8C136.689 128.813 136.442 129.727 135.949 130.54C135.469 131.353 134.809 132 133.969 132.48C133.129 132.96 132.182 133.2 131.129 133.2ZM131.129 130.82C131.675 130.82 132.162 130.687 132.589 130.42C133.029 130.153 133.375 129.793 133.629 129.34C133.895 128.873 134.029 128.36 134.029 127.8C134.029 127.227 133.895 126.713 133.629 126.26C133.375 125.807 133.029 125.447 132.589 125.18C132.162 124.9 131.675 124.76 131.129 124.76C130.595 124.76 130.109 124.9 129.669 125.18C129.229 125.447 128.882 125.807 128.629 126.26C128.375 126.713 128.249 127.227 128.249 127.8C128.249 128.36 128.375 128.873 128.629 129.34C128.882 129.793 129.229 130.153 129.669 130.42C130.109 130.687 130.595 130.82 131.129 130.82ZM141.46 133L137 122.58H139.98L142.84 129.52L145.68 122.58H148.6L144.12 133H141.46ZM152.709 133.18C151.962 133.18 151.302 133.047 150.729 132.78C150.155 132.5 149.709 132.12 149.389 131.64C149.069 131.16 148.909 130.607 148.909 129.98C148.909 128.98 149.282 128.207 150.029 127.66C150.789 127.1 151.829 126.82 153.149 126.82C154.055 126.82 154.909 126.96 155.709 127.24V126.48C155.709 125.88 155.522 125.427 155.149 125.12C154.775 124.813 154.229 124.66 153.509 124.66C153.069 124.66 152.595 124.733 152.089 124.88C151.582 125.013 150.995 125.227 150.329 125.52L149.329 123.5C150.155 123.127 150.942 122.847 151.689 122.66C152.449 122.473 153.209 122.38 153.969 122.38C155.369 122.38 156.455 122.72 157.229 123.4C158.015 124.067 158.409 125.013 158.409 126.24V133H155.709V132.26C155.282 132.58 154.822 132.813 154.329 132.96C153.835 133.107 153.295 133.18 152.709 133.18ZM151.509 129.92C151.509 130.32 151.682 130.64 152.029 130.88C152.375 131.107 152.835 131.22 153.409 131.22C153.862 131.22 154.282 131.167 154.669 131.06C155.055 130.94 155.402 130.767 155.709 130.54V129.02C155.375 128.887 155.029 128.787 154.669 128.72C154.309 128.653 153.922 128.62 153.509 128.62C152.882 128.62 152.389 128.74 152.029 128.98C151.682 129.207 151.509 129.52 151.509 129.92ZM165.129 133.16C163.969 133.16 163.089 132.9 162.489 132.38C161.903 131.847 161.609 131.073 161.609 130.06V124.86H159.469V122.58H161.609V119.92L164.349 119.3V122.58H167.329V124.86H164.349V129.5C164.349 129.98 164.456 130.327 164.669 130.54C164.883 130.74 165.256 130.84 165.789 130.84C166.056 130.84 166.296 130.827 166.509 130.8C166.736 130.76 166.983 130.693 167.249 130.6V132.86C166.969 132.953 166.616 133.027 166.189 133.08C165.776 133.133 165.423 133.16 165.129 133.16ZM168.666 133V122.58H171.406V133H168.666ZM170.026 121.34C169.599 121.34 169.233 121.187 168.926 120.88C168.619 120.573 168.466 120.207 168.466 119.78C168.466 119.34 168.619 118.973 168.926 118.68C169.233 118.373 169.599 118.22 170.026 118.22C170.466 118.22 170.833 118.373 171.126 118.68C171.433 118.973 171.586 119.34 171.586 119.78C171.586 120.207 171.433 120.573 171.126 120.88C170.833 121.187 170.466 121.34 170.026 121.34ZM178.629 133.2C177.589 133.2 176.649 132.96 175.809 132.48C174.969 132 174.302 131.353 173.809 130.54C173.315 129.727 173.069 128.813 173.069 127.8C173.069 126.787 173.309 125.873 173.789 125.06C174.282 124.233 174.949 123.58 175.789 123.1C176.642 122.62 177.589 122.38 178.629 122.38C179.669 122.38 180.609 122.62 181.449 123.1C182.302 123.58 182.969 124.233 183.449 125.06C183.942 125.873 184.189 126.787 184.189 127.8C184.189 128.813 183.942 129.727 183.449 130.54C182.969 131.353 182.309 132 181.469 132.48C180.629 132.96 179.682 133.2 178.629 133.2ZM178.629 130.82C179.175 130.82 179.662 130.687 180.089 130.42C180.529 130.153 180.875 129.793 181.129 129.34C181.395 128.873 181.529 128.36 181.529 127.8C181.529 127.227 181.395 126.713 181.129 126.26C180.875 125.807 180.529 125.447 180.089 125.18C179.662 124.9 179.175 124.76 178.629 124.76C178.095 124.76 177.609 124.9 177.169 125.18C176.729 125.447 176.382 125.807 176.129 126.26C175.875 126.713 175.749 127.227 175.749 127.8C175.749 128.36 175.875 128.873 176.129 129.34C176.382 129.793 176.729 130.153 177.169 130.42C177.609 130.687 178.095 130.82 178.629 130.82ZM185.873 133V122.58H188.613V123.44C189.4 122.733 190.373 122.38 191.533 122.38C192.346 122.38 193.06 122.56 193.673 122.92C194.3 123.267 194.786 123.753 195.133 124.38C195.48 124.993 195.653 125.713 195.653 126.54V133H192.913V126.94C192.913 126.26 192.72 125.727 192.333 125.34C191.946 124.94 191.42 124.74 190.753 124.74C190.286 124.74 189.873 124.833 189.513 125.02C189.153 125.193 188.853 125.447 188.613 125.78V133H185.873Z" fill="white"/>
<defs>
<linearGradient id="paint0_linear_2388_48864" x1="193.863" y1="1" x2="193.863" y2="221" gradientUnits="userSpaceOnUse">
<stop stop-color="#D9D9D9"/>
<stop offset="1" stop-color="#D9D9D9" stop-opacity="0"/>
</linearGradient>
</defs>
</svg>
