<svg width="288" height="222" viewBox="0 0 288 222" fill="none" xmlns="http://www.w3.org/2000/svg">
<path d="M221.124 1H67.613L2 110.639L67.613 221H221.124L286 110.639L221.124 1Z" fill="url(#paint0_linear_2388_48839)" fill-opacity="0.8" stroke="white" stroke-width="2"/>
<path d="M76.5413 103V89H87.3013V91.52H79.4413V94.72H84.6213V97.16H79.4413V100.48H87.3813V103H76.5413ZM89.2519 103V92.58H91.9919V93.44C92.7785 92.7333 93.7519 92.38 94.9119 92.38C95.7252 92.38 96.4385 92.56 97.0519 92.92C97.6785 93.2667 98.1652 93.7533 98.5119 94.38C98.8585 94.9933 99.0319 95.7133 99.0319 96.54V103H96.2919V96.94C96.2919 96.26 96.0985 95.7267 95.7119 95.34C95.3252 94.94 94.7985 94.74 94.1319 94.74C93.6652 94.74 93.2519 94.8333 92.8919 95.02C92.5319 95.1933 92.2319 95.4467 91.9919 95.78V103H89.2519ZM103.921 103L99.4609 92.58H102.441L105.301 99.52L108.141 92.58H111.061L106.581 103H103.921ZM112.143 103V92.58H114.883V103H112.143ZM113.503 91.34C113.076 91.34 112.709 91.1867 112.403 90.88C112.096 90.5733 111.943 90.2067 111.943 89.78C111.943 89.34 112.096 88.9733 112.403 88.68C112.709 88.3733 113.076 88.22 113.503 88.22C113.943 88.22 114.309 88.3733 114.603 88.68C114.909 88.9733 115.063 89.34 115.063 89.78C115.063 90.2067 114.909 90.5733 114.603 90.88C114.309 91.1867 113.943 91.34 113.503 91.34ZM117.025 103V92.58H119.765V93.74C120.099 93.2867 120.499 92.94 120.965 92.7C121.432 92.46 121.959 92.34 122.545 92.34C123.052 92.3533 123.432 92.4333 123.685 92.58V94.98C123.485 94.8867 123.265 94.82 123.025 94.78C122.785 94.7267 122.539 94.7 122.285 94.7C121.752 94.7 121.265 94.8333 120.825 95.1C120.385 95.3667 120.032 95.7467 119.765 96.24V103H117.025ZM129.859 103.2C128.819 103.2 127.879 102.96 127.039 102.48C126.199 102 125.533 101.353 125.039 100.54C124.546 99.7267 124.299 98.8133 124.299 97.8C124.299 96.7867 124.539 95.8733 125.019 95.06C125.513 94.2333 126.179 93.58 127.019 93.1C127.873 92.62 128.819 92.38 129.859 92.38C130.899 92.38 131.839 92.62 132.679 93.1C133.533 93.58 134.199 94.2333 134.679 95.06C135.173 95.8733 135.419 96.7867 135.419 97.8C135.419 98.8133 135.173 99.7267 134.679 100.54C134.199 101.353 133.539 102 132.699 102.48C131.859 102.96 130.913 103.2 129.859 103.2ZM129.859 100.82C130.406 100.82 130.893 100.687 131.319 100.42C131.759 100.153 132.106 99.7933 132.359 99.34C132.626 98.8733 132.759 98.36 132.759 97.8C132.759 97.2267 132.626 96.7133 132.359 96.26C132.106 95.8067 131.759 95.4467 131.319 95.18C130.893 94.9 130.406 94.76 129.859 94.76C129.326 94.76 128.839 94.9 128.399 95.18C127.959 95.4467 127.613 95.8067 127.359 96.26C127.106 96.7133 126.979 97.2267 126.979 97.8C126.979 98.36 127.106 98.8733 127.359 99.34C127.613 99.7933 127.959 100.153 128.399 100.42C128.839 100.687 129.326 100.82 129.859 100.82ZM137.103 103V92.58H139.843V93.44C140.63 92.7333 141.603 92.38 142.763 92.38C143.577 92.38 144.29 92.56 144.903 92.92C145.53 93.2667 146.017 93.7533 146.363 94.38C146.71 94.9933 146.883 95.7133 146.883 96.54V103H144.143V96.94C144.143 96.26 143.95 95.7267 143.563 95.34C143.177 94.94 142.65 94.74 141.983 94.74C141.517 94.74 141.103 94.8333 140.743 95.02C140.383 95.1933 140.083 95.4467 139.843 95.78V103H137.103ZM148.959 103V92.58H151.699V93.38C152.446 92.7133 153.352 92.38 154.419 92.38C155.099 92.38 155.706 92.52 156.239 92.8C156.772 93.0667 157.212 93.4467 157.559 93.94C157.986 93.4333 158.486 93.0467 159.059 92.78C159.646 92.5133 160.292 92.38 160.999 92.38C161.786 92.38 162.472 92.56 163.059 92.92C163.659 93.2667 164.126 93.7533 164.459 94.38C164.806 94.9933 164.979 95.7133 164.979 96.54V103H162.259V96.94C162.259 96.26 162.079 95.7267 161.719 95.34C161.359 94.94 160.879 94.74 160.279 94.74C159.866 94.74 159.486 94.8267 159.139 95C158.806 95.1733 158.519 95.4333 158.279 95.78C158.292 95.9 158.306 96.02 158.319 96.14C158.332 96.26 158.339 96.3933 158.339 96.54V103H155.599V96.94C155.599 96.26 155.419 95.7267 155.059 95.34C154.712 94.94 154.239 94.74 153.639 94.74C153.226 94.74 152.852 94.82 152.519 94.98C152.199 95.14 151.926 95.38 151.699 95.7V103H148.959ZM172.164 103.2C171.124 103.2 170.178 102.96 169.324 102.48C168.484 102 167.818 101.353 167.324 100.54C166.831 99.7267 166.584 98.8133 166.584 97.8C166.584 96.7867 166.818 95.8733 167.284 95.06C167.764 94.2467 168.411 93.6 169.224 93.12C170.038 92.64 170.944 92.4 171.944 92.4C172.944 92.4 173.831 92.6467 174.604 93.14C175.378 93.6333 175.984 94.3 176.424 95.14C176.878 95.98 177.104 96.9333 177.104 98V98.72H169.384C169.504 99.1333 169.698 99.5067 169.964 99.84C170.244 100.173 170.584 100.433 170.984 100.62C171.398 100.807 171.838 100.9 172.304 100.9C172.771 100.9 173.198 100.827 173.584 100.68C173.984 100.533 174.324 100.327 174.604 100.06L176.404 101.7C175.764 102.22 175.104 102.6 174.424 102.84C173.758 103.08 173.004 103.2 172.164 103.2ZM169.344 96.76H174.404C174.311 96.3467 174.138 95.9867 173.884 95.68C173.644 95.36 173.351 95.1133 173.004 94.94C172.671 94.7533 172.298 94.66 171.884 94.66C171.458 94.66 171.071 94.7467 170.724 94.92C170.378 95.0933 170.084 95.34 169.844 95.66C169.618 95.9667 169.451 96.3333 169.344 96.76ZM178.783 103V92.58H181.523V93.44C182.31 92.7333 183.283 92.38 184.443 92.38C185.256 92.38 185.97 92.56 186.583 92.92C187.21 93.2667 187.696 93.7533 188.043 94.38C188.39 94.9933 188.563 95.7133 188.563 96.54V103H185.823V96.94C185.823 96.26 185.63 95.7267 185.243 95.34C184.856 94.94 184.33 94.74 183.663 94.74C183.196 94.74 182.783 94.8333 182.423 95.02C182.063 95.1933 181.763 95.4467 181.523 95.78V103H178.783ZM195.286 103.16C194.126 103.16 193.246 102.9 192.646 102.38C192.059 101.847 191.766 101.073 191.766 100.06V94.86H189.626V92.58H191.766V89.92L194.506 89.3V92.58H197.486V94.86H194.506V99.5C194.506 99.98 194.612 100.327 194.826 100.54C195.039 100.74 195.412 100.84 195.946 100.84C196.212 100.84 196.452 100.827 196.666 100.8C196.892 100.76 197.139 100.693 197.406 100.6V102.86C197.126 102.953 196.772 103.027 196.346 103.08C195.932 103.133 195.579 103.16 195.286 103.16ZM202.142 103.18C201.396 103.18 200.736 103.047 200.162 102.78C199.589 102.5 199.142 102.12 198.822 101.64C198.502 101.16 198.342 100.607 198.342 99.98C198.342 98.98 198.716 98.2067 199.462 97.66C200.222 97.1 201.262 96.82 202.582 96.82C203.489 96.82 204.342 96.96 205.142 97.24V96.48C205.142 95.88 204.956 95.4267 204.582 95.12C204.209 94.8133 203.662 94.66 202.942 94.66C202.502 94.66 202.029 94.7333 201.522 94.88C201.016 95.0133 200.429 95.2267 199.762 95.52L198.762 93.5C199.589 93.1267 200.376 92.8467 201.122 92.66C201.882 92.4733 202.642 92.38 203.402 92.38C204.802 92.38 205.889 92.72 206.662 93.4C207.449 94.0667 207.842 95.0133 207.842 96.24V103H205.142V102.26C204.716 102.58 204.256 102.813 203.762 102.96C203.269 103.107 202.729 103.18 202.142 103.18ZM200.942 99.92C200.942 100.32 201.116 100.64 201.462 100.88C201.809 101.107 202.269 101.22 202.842 101.22C203.296 101.22 203.716 101.167 204.102 101.06C204.489 100.94 204.836 100.767 205.142 100.54V99.02C204.809 98.8867 204.462 98.7867 204.102 98.72C203.742 98.6533 203.356 98.62 202.942 98.62C202.316 98.62 201.822 98.74 201.462 98.98C201.116 99.2067 200.942 99.52 200.942 99.92ZM209.916 103V89L212.656 88.54V103H209.916ZM112.523 133V122.58H115.263V133H112.523ZM113.883 121.34C113.457 121.34 113.09 121.187 112.783 120.88C112.477 120.573 112.323 120.207 112.323 119.78C112.323 119.34 112.477 118.973 112.783 118.68C113.09 118.373 113.457 118.22 113.883 118.22C114.323 118.22 114.69 118.373 114.983 118.68C115.29 118.973 115.443 119.34 115.443 119.78C115.443 120.207 115.29 120.573 114.983 120.88C114.69 121.187 114.323 121.34 113.883 121.34ZM117.406 133V122.58H120.146V123.38C120.893 122.713 121.8 122.38 122.866 122.38C123.546 122.38 124.153 122.52 124.686 122.8C125.22 123.067 125.66 123.447 126.006 123.94C126.433 123.433 126.933 123.047 127.506 122.78C128.093 122.513 128.74 122.38 129.446 122.38C130.233 122.38 130.92 122.56 131.506 122.92C132.106 123.267 132.573 123.753 132.906 124.38C133.253 124.993 133.426 125.713 133.426 126.54V133H130.706V126.94C130.706 126.26 130.526 125.727 130.166 125.34C129.806 124.94 129.326 124.74 128.726 124.74C128.313 124.74 127.933 124.827 127.586 125C127.253 125.173 126.966 125.433 126.726 125.78C126.74 125.9 126.753 126.02 126.766 126.14C126.78 126.26 126.786 126.393 126.786 126.54V133H124.046V126.94C124.046 126.26 123.866 125.727 123.506 125.34C123.16 124.94 122.686 124.74 122.086 124.74C121.673 124.74 121.3 124.82 120.966 124.98C120.646 125.14 120.373 125.38 120.146 125.7V133H117.406ZM135.512 137.08V122.58H138.212V123.44C139.065 122.773 140.052 122.44 141.172 122.44C142.158 122.44 143.052 122.68 143.852 123.16C144.652 123.64 145.285 124.287 145.752 125.1C146.232 125.9 146.472 126.8 146.472 127.8C146.472 128.8 146.232 129.707 145.752 130.52C145.272 131.32 144.625 131.96 143.812 132.44C142.998 132.907 142.092 133.14 141.092 133.14C140.572 133.14 140.072 133.073 139.592 132.94C139.112 132.793 138.665 132.587 138.252 132.32V137.08H135.512ZM140.732 130.82C141.305 130.82 141.818 130.687 142.272 130.42C142.738 130.153 143.105 129.793 143.372 129.34C143.638 128.887 143.772 128.373 143.772 127.8C143.772 127.227 143.638 126.713 143.372 126.26C143.105 125.793 142.738 125.433 142.272 125.18C141.818 124.913 141.305 124.78 140.732 124.78C140.225 124.78 139.758 124.867 139.332 125.04C138.918 125.2 138.558 125.447 138.252 125.78V129.84C138.545 130.147 138.905 130.387 139.332 130.56C139.772 130.733 140.238 130.82 140.732 130.82ZM151.546 133.18C150.8 133.18 150.14 133.047 149.566 132.78C148.993 132.5 148.546 132.12 148.226 131.64C147.906 131.16 147.746 130.607 147.746 129.98C147.746 128.98 148.12 128.207 148.866 127.66C149.626 127.1 150.666 126.82 151.986 126.82C152.893 126.82 153.746 126.96 154.546 127.24V126.48C154.546 125.88 154.36 125.427 153.986 125.12C153.613 124.813 153.066 124.66 152.346 124.66C151.906 124.66 151.433 124.733 150.926 124.88C150.42 125.013 149.833 125.227 149.166 125.52L148.166 123.5C148.993 123.127 149.78 122.847 150.526 122.66C151.286 122.473 152.046 122.38 152.806 122.38C154.206 122.38 155.293 122.72 156.066 123.4C156.853 124.067 157.246 125.013 157.246 126.24V133H154.546V132.26C154.12 132.58 153.66 132.813 153.166 132.96C152.673 133.107 152.133 133.18 151.546 133.18ZM150.346 129.92C150.346 130.32 150.52 130.64 150.866 130.88C151.213 131.107 151.673 131.22 152.246 131.22C152.7 131.22 153.12 131.167 153.506 131.06C153.893 130.94 154.24 130.767 154.546 130.54V129.02C154.213 128.887 153.866 128.787 153.506 128.72C153.146 128.653 152.76 128.62 152.346 128.62C151.72 128.62 151.226 128.74 150.866 128.98C150.52 129.207 150.346 129.52 150.346 129.92ZM164.3 133.2C163.274 133.2 162.347 132.967 161.52 132.5C160.694 132.02 160.04 131.373 159.56 130.56C159.08 129.733 158.84 128.813 158.84 127.8C158.84 126.773 159.08 125.853 159.56 125.04C160.04 124.227 160.694 123.58 161.52 123.1C162.347 122.62 163.274 122.38 164.3 122.38C165.127 122.38 165.914 122.54 166.66 122.86C167.42 123.18 168.074 123.64 168.62 124.24L166.94 126.02C166.554 125.593 166.147 125.28 165.72 125.08C165.307 124.867 164.854 124.76 164.36 124.76C163.827 124.76 163.347 124.893 162.92 125.16C162.507 125.427 162.174 125.787 161.92 126.24C161.68 126.693 161.56 127.213 161.56 127.8C161.56 128.36 161.68 128.873 161.92 129.34C162.174 129.793 162.52 130.153 162.96 130.42C163.4 130.673 163.887 130.8 164.42 130.8C164.887 130.8 165.32 130.707 165.72 130.52C166.134 130.32 166.527 130.027 166.9 129.64L168.54 131.36C168.007 131.933 167.367 132.387 166.62 132.72C165.874 133.04 165.1 133.2 164.3 133.2ZM175.1 133.16C173.94 133.16 173.06 132.9 172.46 132.38C171.873 131.847 171.58 131.073 171.58 130.06V124.86H169.44V122.58H171.58V119.92L174.32 119.3V122.58H177.3V124.86H174.32V129.5C174.32 129.98 174.427 130.327 174.64 130.54C174.853 130.74 175.227 130.84 175.76 130.84C176.027 130.84 176.267 130.827 176.48 130.8C176.707 130.76 176.953 130.693 177.22 130.6V132.86C176.94 132.953 176.587 133.027 176.16 133.08C175.747 133.133 175.393 133.16 175.1 133.16Z" fill="white"/>
<defs>
<linearGradient id="paint0_linear_2388_48839" x1="193.863" y1="1" x2="193.863" y2="221" gradientUnits="userSpaceOnUse">
<stop stop-color="#D9D9D9"/>
<stop offset="1" stop-color="#D9D9D9" stop-opacity="0"/>
</linearGradient>
</defs>
</svg>
