<svg width="288" height="222" viewBox="0 0 288 222" fill="none" xmlns="http://www.w3.org/2000/svg">
<g opacity="0.2">
<path d="M221.124 1H67.613L2 110.639L67.613 221H221.124L286 110.639L221.124 1Z" fill="url(#paint0_linear_2388_48861)" fill-opacity="0.2" stroke="white" stroke-width="2"/>
<path d="M124.453 118V106.56H119.733V104H132.053V106.56H127.353V118H124.453ZM132.641 118V107.58H135.381V108.74C135.714 108.287 136.114 107.94 136.581 107.7C137.047 107.46 137.574 107.34 138.161 107.34C138.667 107.353 139.047 107.433 139.301 107.58V109.98C139.101 109.887 138.881 109.82 138.641 109.78C138.401 109.727 138.154 109.7 137.901 109.7C137.367 109.7 136.881 109.833 136.441 110.1C136.001 110.367 135.647 110.747 135.381 111.24V118H132.641ZM144.786 118.2C143.986 118.2 143.273 118.027 142.646 117.68C142.033 117.32 141.546 116.827 141.186 116.2C140.839 115.573 140.666 114.853 140.666 114.04V107.58H143.406V113.64C143.406 114.307 143.599 114.84 143.986 115.24C144.386 115.64 144.919 115.84 145.586 115.84C146.039 115.84 146.446 115.753 146.806 115.58C147.179 115.393 147.486 115.133 147.726 114.8V107.58H150.466V118H147.726V117.16C146.926 117.853 145.946 118.2 144.786 118.2ZM156.501 118.2C155.541 118.2 154.655 118.08 153.841 117.84C153.028 117.587 152.321 117.227 151.721 116.76L153.081 114.94C153.681 115.34 154.255 115.64 154.801 115.84C155.361 116.04 155.915 116.14 156.461 116.14C157.075 116.14 157.561 116.04 157.921 115.84C158.295 115.627 158.481 115.353 158.481 115.02C158.481 114.753 158.375 114.54 158.161 114.38C157.961 114.22 157.635 114.107 157.181 114.04L155.181 113.74C154.141 113.58 153.355 113.247 152.821 112.74C152.288 112.22 152.021 111.54 152.021 110.7C152.021 110.02 152.195 109.44 152.541 108.96C152.901 108.467 153.401 108.087 154.041 107.82C154.695 107.54 155.468 107.4 156.361 107.4C157.121 107.4 157.861 107.507 158.581 107.72C159.315 107.933 160.001 108.26 160.641 108.7L159.321 110.48C158.748 110.12 158.201 109.86 157.681 109.7C157.161 109.54 156.635 109.46 156.101 109.46C155.608 109.46 155.208 109.553 154.901 109.74C154.608 109.927 154.461 110.173 154.461 110.48C154.461 110.76 154.568 110.98 154.781 111.14C154.995 111.3 155.361 111.413 155.881 111.48L157.861 111.78C158.901 111.927 159.695 112.26 160.241 112.78C160.788 113.287 161.061 113.947 161.061 114.76C161.061 115.427 160.861 116.02 160.461 116.54C160.061 117.047 159.521 117.453 158.841 117.76C158.161 118.053 157.381 118.2 156.501 118.2ZM167.17 118.16C166.01 118.16 165.13 117.9 164.53 117.38C163.944 116.847 163.65 116.073 163.65 115.06V109.86H161.51V107.58H163.65V104.92L166.39 104.3V107.58H169.37V109.86H166.39V114.5C166.39 114.98 166.497 115.327 166.71 115.54C166.924 115.74 167.297 115.84 167.83 115.84C168.097 115.84 168.337 115.827 168.55 115.8C168.777 115.76 169.024 115.693 169.29 115.6V117.86C169.01 117.953 168.657 118.027 168.23 118.08C167.817 118.133 167.464 118.16 167.17 118.16Z" fill="white"/>
</g>
<defs>
<linearGradient id="paint0_linear_2388_48861" x1="193.863" y1="1" x2="193.863" y2="221" gradientUnits="userSpaceOnUse">
<stop stop-color="#D9D9D9"/>
<stop offset="1" stop-color="#D9D9D9" stop-opacity="0"/>
</linearGradient>
</defs>
</svg>
