<svg width="288" height="222" viewBox="0 0 288 222" fill="none" xmlns="http://www.w3.org/2000/svg">
<path d="M221.124 1H67.613L2 110.639L67.613 221H221.124L286 110.639L221.124 1Z" fill="url(#paint0_linear_2388_48836)" fill-opacity="0.8" stroke="white" stroke-width="2"/>
<path d="M99.4514 103V89H110.211V91.52H102.351V94.72H107.531V97.16H102.351V100.48H110.291V103H99.4514ZM110.905 103L114.905 97.7L111.005 92.58H114.185L116.485 95.68L118.765 92.58H121.845L118.005 97.66L122.085 103H118.885L116.425 99.68L113.965 103H110.905ZM127.864 103.16C126.704 103.16 125.824 102.9 125.224 102.38C124.637 101.847 124.344 101.073 124.344 100.06V94.86H122.204V92.58H124.344V89.92L127.084 89.3V92.58H130.064V94.86H127.084V99.5C127.084 99.98 127.19 100.327 127.404 100.54C127.617 100.74 127.99 100.84 128.524 100.84C128.79 100.84 129.03 100.827 129.244 100.8C129.47 100.76 129.717 100.693 129.984 100.6V102.86C129.704 102.953 129.35 103.027 128.924 103.08C128.51 103.133 128.157 103.16 127.864 103.16ZM136.383 103.2C135.343 103.2 134.396 102.96 133.543 102.48C132.703 102 132.036 101.353 131.543 100.54C131.05 99.7267 130.803 98.8133 130.803 97.8C130.803 96.7867 131.036 95.8733 131.503 95.06C131.983 94.2467 132.63 93.6 133.443 93.12C134.256 92.64 135.163 92.4 136.163 92.4C137.163 92.4 138.05 92.6467 138.823 93.14C139.596 93.6333 140.203 94.3 140.643 95.14C141.096 95.98 141.323 96.9333 141.323 98V98.72H133.603C133.723 99.1333 133.916 99.5067 134.183 99.84C134.463 100.173 134.803 100.433 135.203 100.62C135.616 100.807 136.056 100.9 136.523 100.9C136.99 100.9 137.416 100.827 137.803 100.68C138.203 100.533 138.543 100.327 138.823 100.06L140.623 101.7C139.983 102.22 139.323 102.6 138.643 102.84C137.976 103.08 137.223 103.2 136.383 103.2ZM133.563 96.76H138.623C138.53 96.3467 138.356 95.9867 138.103 95.68C137.863 95.36 137.57 95.1133 137.223 94.94C136.89 94.7533 136.516 94.66 136.103 94.66C135.676 94.66 135.29 94.7467 134.943 94.92C134.596 95.0933 134.303 95.34 134.063 95.66C133.836 95.9667 133.67 96.3333 133.563 96.76ZM143.002 103V92.58H145.742V93.44C146.529 92.7333 147.502 92.38 148.662 92.38C149.475 92.38 150.189 92.56 150.802 92.92C151.429 93.2667 151.915 93.7533 152.262 94.38C152.609 94.9933 152.782 95.7133 152.782 96.54V103H150.042V96.94C150.042 96.26 149.849 95.7267 149.462 95.34C149.075 94.94 148.549 94.74 147.882 94.74C147.415 94.74 147.002 94.8333 146.642 95.02C146.282 95.1933 145.982 95.4467 145.742 95.78V103H143.002ZM159.677 103.14C158.691 103.14 157.797 102.9 156.997 102.42C156.197 101.94 155.557 101.3 155.077 100.5C154.611 99.6867 154.377 98.78 154.377 97.78C154.377 96.78 154.611 95.88 155.077 95.08C155.557 94.2667 156.204 93.6267 157.017 93.16C157.831 92.68 158.744 92.44 159.757 92.44C160.277 92.44 160.777 92.5133 161.257 92.66C161.737 92.7933 162.184 92.9933 162.597 93.26V89L165.337 88.54V103H162.637V102.14C161.784 102.807 160.797 103.14 159.677 103.14ZM160.117 100.8C160.624 100.8 161.084 100.72 161.497 100.56C161.924 100.387 162.291 100.133 162.597 99.8V95.74C162.291 95.4333 161.924 95.1933 161.497 95.02C161.071 94.8467 160.611 94.76 160.117 94.76C159.544 94.76 159.024 94.8933 158.557 95.16C158.104 95.4133 157.744 95.7733 157.477 96.24C157.211 96.6933 157.077 97.2067 157.077 97.78C157.077 98.3533 157.211 98.8667 157.477 99.32C157.744 99.7733 158.104 100.133 158.557 100.4C159.024 100.667 159.544 100.8 160.117 100.8ZM172.575 103.2C171.535 103.2 170.588 102.96 169.735 102.48C168.895 102 168.228 101.353 167.735 100.54C167.241 99.7267 166.995 98.8133 166.995 97.8C166.995 96.7867 167.228 95.8733 167.695 95.06C168.175 94.2467 168.821 93.6 169.635 93.12C170.448 92.64 171.355 92.4 172.355 92.4C173.355 92.4 174.241 92.6467 175.015 93.14C175.788 93.6333 176.395 94.3 176.835 95.14C177.288 95.98 177.515 96.9333 177.515 98V98.72H169.795C169.915 99.1333 170.108 99.5067 170.375 99.84C170.655 100.173 170.995 100.433 171.395 100.62C171.808 100.807 172.248 100.9 172.715 100.9C173.181 100.9 173.608 100.827 173.995 100.68C174.395 100.533 174.735 100.327 175.015 100.06L176.815 101.7C176.175 102.22 175.515 102.6 174.835 102.84C174.168 103.08 173.415 103.2 172.575 103.2ZM169.755 96.76H174.815C174.721 96.3467 174.548 95.9867 174.295 95.68C174.055 95.36 173.761 95.1133 173.415 94.94C173.081 94.7533 172.708 94.66 172.295 94.66C171.868 94.66 171.481 94.7467 171.135 94.92C170.788 95.0933 170.495 95.34 170.255 95.66C170.028 95.9667 169.861 96.3333 169.755 96.76ZM184.091 103.14C183.105 103.14 182.211 102.9 181.411 102.42C180.611 101.94 179.971 101.3 179.491 100.5C179.025 99.6867 178.791 98.78 178.791 97.78C178.791 96.78 179.025 95.88 179.491 95.08C179.971 94.2667 180.618 93.6267 181.431 93.16C182.245 92.68 183.158 92.44 184.171 92.44C184.691 92.44 185.191 92.5133 185.671 92.66C186.151 92.7933 186.598 92.9933 187.011 93.26V89L189.751 88.54V103H187.051V102.14C186.198 102.807 185.211 103.14 184.091 103.14ZM184.531 100.8C185.038 100.8 185.498 100.72 185.911 100.56C186.338 100.387 186.705 100.133 187.011 99.8V95.74C186.705 95.4333 186.338 95.1933 185.911 95.02C185.485 94.8467 185.025 94.76 184.531 94.76C183.958 94.76 183.438 94.8933 182.971 95.16C182.518 95.4133 182.158 95.7733 181.891 96.24C181.625 96.6933 181.491 97.2067 181.491 97.78C181.491 98.3533 181.625 98.8667 181.891 99.32C182.158 99.7733 182.518 100.133 182.971 100.4C183.438 100.667 183.958 100.8 184.531 100.8ZM90.4921 137.08V122.58H93.1921V123.44C94.0454 122.773 95.0321 122.44 96.1521 122.44C97.1388 122.44 98.0321 122.68 98.8321 123.16C99.6321 123.64 100.265 124.287 100.732 125.1C101.212 125.9 101.452 126.8 101.452 127.8C101.452 128.8 101.212 129.707 100.732 130.52C100.252 131.32 99.6054 131.96 98.7921 132.44C97.9788 132.907 97.0721 133.14 96.0721 133.14C95.5521 133.14 95.0521 133.073 94.5721 132.94C94.0921 132.793 93.6454 132.587 93.2321 132.32V137.08H90.4921ZM95.7121 130.82C96.2854 130.82 96.7988 130.687 97.2521 130.42C97.7188 130.153 98.0854 129.793 98.3521 129.34C98.6188 128.887 98.7521 128.373 98.7521 127.8C98.7521 127.227 98.6188 126.713 98.3521 126.26C98.0854 125.793 97.7188 125.433 97.2521 125.18C96.7988 124.913 96.2854 124.78 95.7121 124.78C95.2054 124.78 94.7388 124.867 94.3121 125.04C93.8988 125.2 93.5388 125.447 93.2321 125.78V129.84C93.5254 130.147 93.8854 130.387 94.3121 130.56C94.7521 130.733 95.2188 130.82 95.7121 130.82ZM103.109 133V122.58H105.849V123.74C106.183 123.287 106.583 122.94 107.049 122.7C107.516 122.46 108.043 122.34 108.629 122.34C109.136 122.353 109.516 122.433 109.769 122.58V124.98C109.569 124.887 109.349 124.82 109.109 124.78C108.869 124.727 108.623 124.7 108.369 124.7C107.836 124.7 107.349 124.833 106.909 125.1C106.469 125.367 106.116 125.747 105.849 126.24V133H103.109ZM115.943 133.2C114.903 133.2 113.963 132.96 113.123 132.48C112.283 132 111.617 131.353 111.123 130.54C110.63 129.727 110.383 128.813 110.383 127.8C110.383 126.787 110.623 125.873 111.103 125.06C111.597 124.233 112.263 123.58 113.103 123.1C113.957 122.62 114.903 122.38 115.943 122.38C116.983 122.38 117.923 122.62 118.763 123.1C119.617 123.58 120.283 124.233 120.763 125.06C121.257 125.873 121.503 126.787 121.503 127.8C121.503 128.813 121.257 129.727 120.763 130.54C120.283 131.353 119.623 132 118.783 132.48C117.943 132.96 116.997 133.2 115.943 133.2ZM115.943 130.82C116.49 130.82 116.977 130.687 117.403 130.42C117.843 130.153 118.19 129.793 118.443 129.34C118.71 128.873 118.843 128.36 118.843 127.8C118.843 127.227 118.71 126.713 118.443 126.26C118.19 125.807 117.843 125.447 117.403 125.18C116.977 124.9 116.49 124.76 115.943 124.76C115.41 124.76 114.923 124.9 114.483 125.18C114.043 125.447 113.697 125.807 113.443 126.26C113.19 126.713 113.063 127.227 113.063 127.8C113.063 128.36 113.19 128.873 113.443 129.34C113.697 129.793 114.043 130.153 114.483 130.42C114.923 130.687 115.41 130.82 115.943 130.82ZM128.007 133.14C127.021 133.14 126.127 132.9 125.327 132.42C124.527 131.94 123.887 131.3 123.407 130.5C122.941 129.687 122.707 128.78 122.707 127.78C122.707 126.78 122.941 125.88 123.407 125.08C123.887 124.267 124.534 123.627 125.347 123.16C126.161 122.68 127.074 122.44 128.087 122.44C128.607 122.44 129.107 122.513 129.587 122.66C130.067 122.793 130.514 122.993 130.927 123.26V119L133.667 118.54V133H130.967V132.14C130.114 132.807 129.127 133.14 128.007 133.14ZM128.447 130.8C128.954 130.8 129.414 130.72 129.827 130.56C130.254 130.387 130.621 130.133 130.927 129.8V125.74C130.621 125.433 130.254 125.193 129.827 125.02C129.401 124.847 128.941 124.76 128.447 124.76C127.874 124.76 127.354 124.893 126.887 125.16C126.434 125.413 126.074 125.773 125.807 126.24C125.541 126.693 125.407 127.207 125.407 127.78C125.407 128.353 125.541 128.867 125.807 129.32C126.074 129.773 126.434 130.133 126.887 130.4C127.354 130.667 127.874 130.8 128.447 130.8ZM139.845 133.2C139.045 133.2 138.331 133.027 137.705 132.68C137.091 132.32 136.605 131.827 136.245 131.2C135.898 130.573 135.725 129.853 135.725 129.04V122.58H138.465V128.64C138.465 129.307 138.658 129.84 139.045 130.24C139.445 130.64 139.978 130.84 140.645 130.84C141.098 130.84 141.505 130.753 141.865 130.58C142.238 130.393 142.545 130.133 142.785 129.8V122.58H145.525V133H142.785V132.16C141.985 132.853 141.005 133.2 139.845 133.2ZM152.64 133.2C151.613 133.2 150.687 132.967 149.86 132.5C149.033 132.02 148.38 131.373 147.9 130.56C147.42 129.733 147.18 128.813 147.18 127.8C147.18 126.773 147.42 125.853 147.9 125.04C148.38 124.227 149.033 123.58 149.86 123.1C150.687 122.62 151.613 122.38 152.64 122.38C153.467 122.38 154.253 122.54 155 122.86C155.76 123.18 156.413 123.64 156.96 124.24L155.28 126.02C154.893 125.593 154.487 125.28 154.06 125.08C153.647 124.867 153.193 124.76 152.7 124.76C152.167 124.76 151.687 124.893 151.26 125.16C150.847 125.427 150.513 125.787 150.26 126.24C150.02 126.693 149.9 127.213 149.9 127.8C149.9 128.36 150.02 128.873 150.26 129.34C150.513 129.793 150.86 130.153 151.3 130.42C151.74 130.673 152.227 130.8 152.76 130.8C153.227 130.8 153.66 130.707 154.06 130.52C154.473 130.32 154.867 130.027 155.24 129.64L156.88 131.36C156.347 131.933 155.707 132.387 154.96 132.72C154.213 133.04 153.44 133.2 152.64 133.2ZM163.44 133.16C162.28 133.16 161.4 132.9 160.8 132.38C160.213 131.847 159.92 131.073 159.92 130.06V124.86H157.78V122.58H159.92V119.92L162.66 119.3V122.58H165.64V124.86H162.66V129.5C162.66 129.98 162.767 130.327 162.98 130.54C163.193 130.74 163.567 130.84 164.1 130.84C164.367 130.84 164.607 130.827 164.82 130.8C165.047 130.76 165.293 130.693 165.56 130.6V132.86C165.28 132.953 164.927 133.027 164.5 133.08C164.087 133.133 163.733 133.16 163.44 133.16ZM171 133V119L173.74 118.54V133H171ZM175.883 133V122.58H178.623V133H175.883ZM177.243 121.34C176.816 121.34 176.449 121.187 176.143 120.88C175.836 120.573 175.683 120.207 175.683 119.78C175.683 119.34 175.836 118.973 176.143 118.68C176.449 118.373 176.816 118.22 177.243 118.22C177.683 118.22 178.049 118.373 178.343 118.68C178.649 118.973 178.803 119.34 178.803 119.78C178.803 120.207 178.649 120.573 178.343 120.88C178.049 121.187 177.683 121.34 177.243 121.34ZM182.366 133V124.86H180.046V122.58H182.366V121.58C182.366 120.407 182.706 119.513 183.386 118.9C184.066 118.273 185.046 117.96 186.326 117.96C186.606 117.96 186.892 117.973 187.186 118C187.479 118.027 187.732 118.073 187.946 118.14V120.44C187.692 120.387 187.472 120.347 187.286 120.32C187.099 120.293 186.892 120.28 186.666 120.28C186.146 120.28 185.752 120.393 185.486 120.62C185.232 120.833 185.106 121.173 185.106 121.64V122.58H187.946V124.86H185.106V133H182.366ZM194.049 133.2C193.009 133.2 192.062 132.96 191.209 132.48C190.369 132 189.702 131.353 189.209 130.54C188.716 129.727 188.469 128.813 188.469 127.8C188.469 126.787 188.702 125.873 189.169 125.06C189.649 124.247 190.296 123.6 191.109 123.12C191.922 122.64 192.829 122.4 193.829 122.4C194.829 122.4 195.716 122.647 196.489 123.14C197.262 123.633 197.869 124.3 198.309 125.14C198.762 125.98 198.989 126.933 198.989 128V128.72H191.269C191.389 129.133 191.582 129.507 191.849 129.84C192.129 130.173 192.469 130.433 192.869 130.62C193.282 130.807 193.722 130.9 194.189 130.9C194.656 130.9 195.082 130.827 195.469 130.68C195.869 130.533 196.209 130.327 196.489 130.06L198.289 131.7C197.649 132.22 196.989 132.6 196.309 132.84C195.642 133.08 194.889 133.2 194.049 133.2ZM191.229 126.76H196.289C196.196 126.347 196.022 125.987 195.769 125.68C195.529 125.36 195.236 125.113 194.889 124.94C194.556 124.753 194.182 124.66 193.769 124.66C193.342 124.66 192.956 124.747 192.609 124.92C192.262 125.093 191.969 125.34 191.729 125.66C191.502 125.967 191.336 126.333 191.229 126.76Z" fill="white"/>
<defs>
<linearGradient id="paint0_linear_2388_48836" x1="193.863" y1="1" x2="193.863" y2="221" gradientUnits="userSpaceOnUse">
<stop stop-color="#D9D9D9"/>
<stop offset="1" stop-color="#D9D9D9" stop-opacity="0"/>
</linearGradient>
</defs>
</svg>
