    <svg width="42" height="42" viewBox="0 0 42 42" fill="none" xmlns="http://www.w3.org/2000/svg">
    <path d="M21.834 16.8335C21.834 16.3733 21.4609 16.0002 21.0007 16.0002C20.5404 16.0002 20.1673 16.3733 20.1673 16.8335V18.9168C20.1673 19.3771 20.5404 19.7502 21.0007 19.7502C21.4609 19.7502 21.834 19.3771 21.834 18.9168V16.8335Z" fill="#003C9E"/>
    <path fill-rule="evenodd" clip-rule="evenodd" d="M27.6673 24.4724V18.3613C27.6673 15.3412 25.012 13.0559 21.834 12.7118V12.6668C21.834 12.2066 21.4609 11.8335 21.0007 11.8335C20.5404 11.8335 20.1673 12.2066 20.1673 12.6668V12.7118C16.9893 13.0559 14.334 15.3412 14.334 18.3613V24.4724C14.334 27.7531 17.4675 30.1668 21.0007 30.1668C24.5338 30.1668 27.6673 27.7531 27.6673 24.4724ZM26.0007 18.3613V24.4724C26.0007 26.5611 23.9108 28.5002 21.0007 28.5002C18.0905 28.5002 16.0007 26.5611 16.0007 24.4724L16.0007 18.3613C16.0007 16.2726 18.0905 14.3335 21.0007 14.3335C23.9108 14.3335 26.0007 16.2726 26.0007 18.3613Z" fill="#003C9E"/>
    <circle cx="21" cy="21" r="20" stroke="url(#paint0_linear_2388_48919)" stroke-width="2"/>
    <defs>
    <linearGradient id="paint0_linear_2388_48919" x1="3" y1="-1" x2="41" y2="46.5" gradientUnits="userSpaceOnUse">
    <stop stop-color="#2D76FF"/>
    <stop offset="1" stop-color="#2D76FF" stop-opacity="0"/>
    </linearGradient>
    </defs>
    </svg>
